<svg aria-hidden="true" xmlns="http://www.w3.org/2000/svg" xmlns:xlink="http://www.w3.org/1999/xlink"><symbol viewBox="-32 0 512 512" id="bell" xmlns="http://www.w3.org/2000/svg"><path d="M439.39 362.29c-19.32-20.76-55.47-51.99-55.47-154.29 0-77.7-54.48-139.9-127.94-155.16V32c0-17.67-14.32-32-31.98-32s-31.98 14.33-31.98 32v20.84C118.56 68.1 64.08 130.3 64.08 208c0 102.3-36.15 133.53-55.47 154.29-6 6.45-8.66 14.16-8.61 21.71.11 16.4 12.98 32 32.1 32h383.8c19.12 0 32-15.6 32.1-32 .05-7.55-2.61-15.27-8.61-21.71zM67.53 368c21.22-27.97 44.42-74.33 44.53-159.42 0-.2-.06-.38-.06-.58 0-61.86 50.14-112 112-112s112 50.14 112 112c0 .2-.06.38-.06.58.11 85.1 23.31 131.46 44.53 159.42H67.53zM224 512c35.32 0 63.97-28.65 63.97-64H160.03c0 35.35 28.65 64 63.97 64z"/></symbol><symbol viewBox="0 0 14 18" id="play" xmlns="http://www.w3.org/2000/svg">
<path d="M13.2923 10.3932L2.15764 17.7762C1.21269 18.4021 0 17.6442 0 16.3824V1.61647C0 0.356646 1.21094 -0.403248 2.15764 0.224664L13.2923 7.60763C13.5073 7.74786 13.686 7.95055 13.8103 8.19516C13.9345 8.43977 14 8.71759 14 9.00043C14 9.28328 13.9345 9.5611 13.8103 9.80571C13.686 10.0503 13.5073 10.253 13.2923 10.3932Z"/>
</symbol><symbol viewBox="0 0 24 24" id="right_arrow" xmlns="http://www.w3.org/2000/svg">
<path d="M10 7L15 12L10 17" stroke-width="1.5" stroke-linecap="round" stroke-linejoin="round"/>
</symbol><symbol viewBox="0 0 24 24" id="search" xmlns="http://www.w3.org/2000/svg">
<path fill-rule="evenodd" clip-rule="evenodd" d="M17.0392 15.6244C18.2714 14.084 19.0082 12.1301 19.0082 10.0041C19.0082 5.03127 14.9769 1 10.0041 1C5.03127 1 1 5.03127 1 10.0041C1 14.9769 5.03127 19.0082 10.0041 19.0082C12.1301 19.0082 14.084 18.2714 15.6244 17.0392L21.2921 22.707C21.6828 23.0977 22.3163 23.0977 22.707 22.707C23.0977 22.3163 23.0977 21.6828 22.707 21.2921L17.0392 15.6244ZM10.0041 17.0173C6.1308 17.0173 2.99087 13.8774 2.99087 10.0041C2.99087 6.1308 6.1308 2.99087 10.0041 2.99087C13.8774 2.99087 17.0173 6.1308 17.0173 10.0041C17.0173 13.8774 13.8774 17.0173 10.0041 17.0173Z"/>
</symbol><symbol viewBox="0 0 24 24" id="user" xmlns="http://www.w3.org/2000/svg">
<path fill-rule="evenodd" clip-rule="evenodd" d="M7 8C7 6.34315 8.34315 5 10 5C11.6569 5 13 6.34315 13 8C13 9.65685 11.6569 11 10 11C8.34315 11 7 9.65685 7 8ZM13.506 11.5648C14.4282 10.6577 15 9.39565 15 8C15 5.23858 12.7614 3 10 3C7.23858 3 5 5.23858 5 8C5 9.39827 5.57396 10.6625 6.49914 11.5699C3.74942 12.5366 2 14.6259 2 17C2 17.5523 2.44772 18 3 18C3.55228 18 4 17.5523 4 17C4 15.2701 5.93073 13 10 13C11.9542 13 13.4554 13.5451 14.4579 14.2992C14.8992 14.6311 15.5262 14.5425 15.8581 14.1011C16.1901 13.6598 16.1015 13.0328 15.6601 12.7008C15.0431 12.2368 14.3206 11.851 13.506 11.5648ZM19 14.5C19.5523 14.5 20 14.9477 20 15.5V18H22.5C23.0523 18 23.5 18.4477 23.5 19C23.5 19.5523 23.0523 20 22.5 20H20V22.5C20 23.0523 19.5523 23.5 19 23.5C18.4477 23.5 18 23.0523 18 22.5V20H15.5C14.9477 20 14.5 19.5523 14.5 19C14.5 18.4477 14.9477 18 15.5 18H18V15.5C18 14.9477 18.4477 14.5 19 14.5Z"/>
</symbol></svg>