<svg width="81" height="81" viewBox="0 0 81 81" fill="none" xmlns="http://www.w3.org/2000/svg">
<path d="M27.651 52.142V30.3442C27.651 30.0575 27.7649 29.7825 27.9677 29.5798C28.1704 29.377 28.4454 29.2631 28.7321 29.2631L62.5753 29.2631C62.6143 29.2631 62.6532 29.2631 62.6921 29.2631C68.8024 29.9258 74.1148 33.6426 78.9321 40.6242C79.0565 40.8046 79.123 41.0186 79.123 41.2377C79.123 41.4569 79.0565 41.6708 78.9321 41.8512C74.1159 48.8426 68.8024 52.5539 62.6889 53.2112C62.6508 53.2156 62.6126 53.2177 62.5743 53.2177H28.7321C28.4463 53.2177 28.1722 53.1046 27.9696 52.903C27.767 52.7014 27.6525 52.4278 27.651 52.142ZM29.8132 31.4253V51.061H62.517C67.8413 50.4739 72.371 47.3475 76.7224 41.248C72.3689 35.1518 67.8391 32.0253 62.5159 31.4296L29.8132 31.4253Z" fill="white"/>
<path d="M25.4175 24.7745C25.4173 24.6252 25.4481 24.4776 25.5078 24.3409C25.5675 24.2041 25.6549 24.0812 25.7645 23.9799L27.3515 22.5183C28.9573 21.0188 30.9613 20.014 33.1236 19.6242C35.2858 19.2344 37.5145 19.4761 39.5429 20.3204L39.6726 20.3756C43.9769 22.2256 47.4016 25.6647 49.2337 29.9766C49.2927 30.1399 49.3115 30.3151 49.2886 30.4872C49.2656 30.6593 49.2015 30.8234 49.1017 30.9655C49.0019 31.1076 48.8694 31.2236 48.7152 31.3036C48.5611 31.3837 48.39 31.4254 48.2164 31.4253H33.0066C32.8232 31.4252 32.6428 31.3784 32.4824 31.2893C32.322 31.2002 32.1869 31.0718 32.0899 30.9161C30.605 28.6779 28.5258 26.8979 26.0856 25.7756C25.9181 25.7057 25.7709 25.5948 25.6575 25.4531C25.5442 25.3114 25.4683 25.1435 25.4369 24.9647C25.425 24.902 25.4185 24.8383 25.4175 24.7745ZM39.118 21.315L38.6942 22.3085C37.0489 21.6272 35.2421 21.4346 33.4902 21.7538C31.7383 22.0731 30.1155 22.8906 28.8164 24.1085L28.3699 24.5193C30.4333 25.7036 32.2146 27.3222 33.5904 29.2631H46.4856C44.7299 26.2007 42.0401 23.7807 38.8099 22.3572L39.118 21.315Z" fill="white"/>
<path d="M25.4175 57.7215C25.4174 57.6578 25.4229 57.5941 25.4337 57.5313C25.4651 57.3525 25.5409 57.1846 25.6543 57.0429C25.7676 56.9012 25.9148 56.7903 26.0823 56.7204C28.5225 55.5981 30.6017 53.818 32.0866 51.5799C32.1837 51.4242 32.3188 51.2958 32.4791 51.2067C32.6395 51.1176 32.8199 51.0708 33.0034 51.0707H48.2164C48.39 51.0706 48.5611 51.1123 48.7152 51.1924C48.8694 51.2724 49.0019 51.3884 49.1017 51.5305C49.2015 51.6726 49.2656 51.8367 49.2886 52.0088C49.3115 52.1809 49.2927 52.3561 49.2337 52.5194C47.4016 56.8313 43.9769 60.2704 39.6726 62.1204L39.5429 62.1756C37.5145 63.0199 35.2858 63.2616 33.1236 62.8718C30.9613 62.482 28.9573 61.4772 27.3515 59.9777L25.7645 58.5161C25.6549 58.4148 25.5675 58.2919 25.5078 58.1551C25.4481 58.0184 25.4173 57.8707 25.4175 57.7215ZM33.5904 53.2329C32.2146 55.1738 30.4333 56.7924 28.3699 57.9767L28.8164 58.3875C30.1153 59.6047 31.7374 60.4219 33.4887 60.7411C35.24 61.0604 37.0461 60.8681 38.691 60.1875L39.2315 61.1291L38.7991 60.1388C42.0293 58.7153 44.719 56.2952 46.4747 53.2329H33.5904Z" fill="white"/>
<path d="M57.3473 41.2481C57.3471 40.1219 57.6809 39.0209 58.3064 38.0843C58.9319 37.1478 59.8212 36.4178 60.8616 35.9867C61.902 35.5556 63.0469 35.4426 64.1515 35.6622C65.2562 35.8818 66.2708 36.424 67.0673 37.2203C67.8637 38.0166 68.4061 39.0312 68.6259 40.1358C68.8457 41.2403 68.733 42.3853 68.3021 43.4258C67.8711 44.4663 67.1413 45.3556 66.2049 45.9814C65.2685 46.6071 64.1676 46.9411 63.0414 46.9411C61.5319 46.9393 60.0848 46.339 59.0173 45.2718C57.9499 44.2046 57.3493 42.7575 57.3473 41.2481ZM66.5722 41.2481C66.5724 40.5494 66.3654 39.8664 65.9774 39.2855C65.5894 38.7045 65.0378 38.2516 64.3924 37.9842C63.747 37.7167 63.0367 37.6467 62.3515 37.7829C61.6663 37.9192 61.0369 38.2556 60.5428 38.7496C60.0488 39.2436 59.7124 39.873 59.5762 40.5582C59.4399 41.2434 59.51 41.9537 59.7774 42.5991C60.0449 43.2445 60.4978 43.7961 61.0787 44.1841C61.6597 44.5721 62.3427 44.7791 63.0414 44.7789C63.9774 44.7777 64.8748 44.4054 65.5368 43.7435C66.1987 43.0816 66.571 42.1842 66.5722 41.2481Z" fill="white"/>
<path d="M23.1819 51.0231V31.4631C23.1819 31.1764 23.2957 30.9014 23.4985 30.6987C23.7012 30.496 23.9762 30.382 24.2629 30.382H28.7321C29.0188 30.382 29.2938 30.496 29.4966 30.6987C29.6993 30.9014 29.8132 31.1764 29.8132 31.4631V51.0231C29.8132 51.3099 29.6993 51.5848 29.4966 51.7876C29.2938 51.9903 29.0188 52.1042 28.7321 52.1042H24.2629C23.9762 52.1042 23.7012 51.9903 23.4985 51.7876C23.2957 51.5848 23.1819 51.3099 23.1819 51.0231ZM25.344 32.5442V49.9421H27.651V32.5442H25.344Z" fill="white"/>
<path d="M3.44771 41.3205C3.48098 40.6043 3.72725 39.9142 4.155 39.3388C4.58275 38.7633 5.17252 38.3286 5.84879 38.0903C7.97603 37.135 9.96974 35.9066 11.7796 34.4362C14.9601 32.0113 17.4726 30.0957 24.6239 32.6362C24.8344 32.7108 25.0167 32.8487 25.1456 33.0311C25.2745 33.2134 25.3438 33.4313 25.3439 33.6546V48.8157C25.344 49.0392 25.2748 49.2572 25.1459 49.4398C25.017 49.6223 24.8346 49.7605 24.6239 49.8351C22.7486 50.5701 20.7632 50.9849 18.7504 51.0621C15.6996 51.0621 13.8726 49.6957 11.7569 48.114C9.94772 46.6737 7.96191 45.4704 5.84771 44.5335C5.17367 44.2991 4.58506 43.8685 4.15743 43.2972C3.7298 42.7259 3.48265 42.0398 3.44771 41.327V41.3205ZM23.1818 34.4275C17.7126 32.6319 16.0358 33.9097 13.0899 36.1573C11.1415 37.7327 8.99763 39.0496 6.71149 40.0751C6.02176 40.3746 5.60987 40.8416 5.60987 41.3227C5.60987 41.7984 6.0196 42.2567 6.70177 42.5508C8.97195 43.5557 11.1057 44.8442 13.052 46.3854C15.0791 47.8989 16.4185 48.9032 18.7504 48.9032C20.2634 48.8485 21.7586 48.5593 23.1829 48.0459L23.1818 34.4275Z" fill="white"/>
<path d="M13.6737 41.2826C13.6922 40.8143 13.8488 40.3618 14.1236 39.9822C14.3985 39.6025 14.7794 39.3125 15.2185 39.1486C16.2652 38.6781 17.2463 38.0737 18.1374 37.3507C19.7428 36.1313 21.1288 35.0805 24.5872 36.1518C24.8068 36.2209 24.9987 36.3583 25.1348 36.544C25.2709 36.7297 25.3442 36.954 25.3439 37.1842V45.2924C25.3439 45.5224 25.2706 45.7465 25.1345 45.932C24.9984 46.1175 24.8066 46.2547 24.5872 46.3237C23.7588 46.6043 22.8929 46.7588 22.0185 46.7821C20.5702 46.7283 19.1893 46.1567 18.1266 45.1713C17.236 44.4636 16.2592 43.8718 15.2196 43.4102C14.7813 43.2481 14.4006 42.9601 14.1256 42.5823C13.8505 42.2045 13.6933 41.7539 13.6737 41.2869V41.2826ZM23.1818 38.0048C21.385 37.5918 20.7223 38.0956 19.4434 39.0675C18.4158 39.8956 17.2858 40.5878 16.0812 41.1269C15.985 41.1608 15.8998 41.2202 15.8347 41.2988C15.852 41.2826 15.9191 41.354 16.0737 41.4199C17.272 41.9484 18.3982 42.6274 19.425 43.4405C20.1196 44.1333 21.0409 44.5521 22.0196 44.6199C22.4129 44.6132 22.8042 44.5621 23.1861 44.4675L23.1818 38.0048Z" fill="white"/>
<path d="M33.6684 41.2481C33.6684 40.9614 33.7823 40.6864 33.985 40.4837C34.1878 40.2809 34.4627 40.167 34.7495 40.167H41.0868C41.3735 40.167 41.6485 40.2809 41.8512 40.4837C42.0539 40.6864 42.1678 40.9614 42.1678 41.2481C42.1678 41.5348 42.0539 41.8098 41.8512 42.0125C41.6485 42.2153 41.3735 42.3292 41.0868 42.3292H34.7495C34.4627 42.3292 34.1878 42.2153 33.985 42.0125C33.7823 41.8098 33.6684 41.5348 33.6684 41.2481Z" fill="white"/>
<path d="M33.6952 36.1668C33.6952 35.8801 33.8091 35.6051 34.0118 35.4023C34.2145 35.1996 34.4895 35.0857 34.7762 35.0857H37.5633C37.85 35.0857 38.125 35.1996 38.3277 35.4023C38.5304 35.6051 38.6443 35.8801 38.6443 36.1668C38.6443 36.4535 38.5304 36.7285 38.3277 36.9312C38.125 37.134 37.85 37.2479 37.5633 37.2479H34.7762C34.4895 37.2479 34.2145 37.134 34.0118 36.9312C33.8091 36.7285 33.6952 36.4535 33.6952 36.1668Z" fill="white"/>
<path d="M33.6952 46.3161C33.6952 46.0294 33.8091 45.7544 34.0118 45.5516C34.2145 45.3489 34.4895 45.235 34.7762 45.235H37.5633C37.85 45.235 38.125 45.3489 38.3277 45.5516C38.5304 45.7544 38.6443 46.0294 38.6443 46.3161C38.6443 46.6028 38.5304 46.8778 38.3277 47.0805C38.125 47.2833 37.85 47.3972 37.5633 47.3972H34.7762C34.4895 47.3972 34.2145 47.2833 34.0118 47.0805C33.8091 46.8778 33.6952 46.6028 33.6952 46.3161Z" fill="white"/>
</svg>
